<svg width="99" height="81" viewBox="0 0 99 81" fill="none" xmlns="http://www.w3.org/2000/svg">
<path d="M93.8768 46.7295C92.0794 49.8636 90.6968 53.2276 89.7292 56.8216C88.8153 60.3499 88.1252 64.6095 87.6589 69.6006C83.5992 68.8 79.1516 67.4353 74.316 65.5063C69.4803 63.5773 65 61.2811 60.8749 58.6179L62.2343 72.2302L40.9204 74.3588L39.5609 60.7465C36.05 64.2327 32.1152 67.3994 27.7566 70.2466C23.3979 73.0938 19.305 75.2814 15.4779 76.8093C14.0338 72.009 12.485 67.9729 10.8317 64.7011C9.23209 61.3635 7.24141 58.3363 4.85965 55.6196C10.7942 54.6651 16.6452 53.1763 22.4127 51.1531C28.2399 49.124 33.4163 46.9187 37.9421 44.5371L37.9242 44.358L7.47566 47.3989L5.83895 31.0104L36.2875 27.9695L35.9476 24.5665L9.26038 27.2317L7.67733 11.3806L34.3646 8.71533L33.98 4.86449L55.294 2.73587L55.6785 6.58671L82.3658 3.92147L83.9488 19.7726L57.2616 22.4379L57.6015 25.8409L88.05 22.8L89.6867 39.1885L59.2382 42.2294L59.2561 42.4085C64.1634 43.848 69.6439 44.989 75.6976 45.8316C81.811 46.6682 87.8708 46.9675 93.8768 46.7295Z" fill="#FFF200"/>
<path d="M93.8768 46.7295L96.0455 47.9732L98.2941 44.0524L93.7778 44.2314L93.8768 46.7295ZM89.7292 56.8216L87.3152 56.1716L87.3121 56.1832L87.3091 56.1947L89.7292 56.8216ZM87.6589 69.6006L87.1752 72.0533L89.8906 72.5888L90.148 69.8331L87.6589 69.6006ZM74.316 65.5063L75.2423 63.1842L75.2423 63.1842L74.316 65.5063ZM60.8749 58.6179L62.2309 56.5176L57.8716 53.7031L58.3873 58.8663L60.8749 58.6179ZM62.2343 72.2302L62.4828 74.7178L64.9704 74.4694L64.722 71.9817L62.2343 72.2302ZM40.9204 74.3588L38.4327 74.6072L38.6812 77.0949L41.1688 76.8464L40.9204 74.3588ZM39.5609 60.7465L42.0485 60.4981L41.5266 55.2716L37.7994 58.9725L39.5609 60.7465ZM27.7565 70.2466L29.1238 72.3396V72.3396L27.7565 70.2466ZM15.4779 76.8093L13.0839 77.5295L13.8702 80.143L16.4049 79.1311L15.4779 76.8093ZM10.8317 64.7011L8.57723 65.7815L8.58856 65.8052L8.60038 65.8286L10.8317 64.7011ZM4.85965 55.6196L4.46266 53.1513L0.000217456 53.869L2.97978 57.2676L4.85965 55.6196ZM22.4127 51.1531L21.5906 48.7922L21.5851 48.7941L22.4127 51.1531ZM37.9421 44.5371L39.1063 46.7495L40.5971 45.965L40.4297 44.2887L37.9421 44.5371ZM37.9242 44.358L40.4118 44.1096L40.1634 41.622L37.6758 41.8704L37.9242 44.358ZM7.47566 47.3989L4.98804 47.6473L5.23648 50.135L7.7241 49.8865L7.47566 47.3989ZM5.83895 31.0104L5.59051 28.5228L3.10289 28.7712L3.35133 31.2589L5.83895 31.0104ZM36.2875 27.9695L36.5359 30.4572L39.0235 30.2087L38.7751 27.7211L36.2875 27.9695ZM35.9476 24.5665L38.4352 24.318L38.1868 21.8304L35.6992 22.0789L35.9476 24.5665ZM9.26038 27.2317L6.77275 27.4802L7.02119 29.9678L9.50882 29.7193L9.26038 27.2317ZM7.67733 11.3806L7.42889 8.89295L4.94127 9.14139L5.18971 11.629L7.67733 11.3806ZM34.3646 8.71533L34.613 11.203L37.1006 10.9545L36.8522 8.46689L34.3646 8.71533ZM33.98 4.86449L33.7316 2.37686L31.2439 2.6253L31.4924 5.11293L33.98 4.86449ZM55.294 2.73587L57.7816 2.48743L57.5332 -0.000193538L55.0455 0.248245L55.294 2.73587ZM55.6785 6.58671L53.1909 6.83515L53.4394 9.32277L55.927 9.07434L55.6785 6.58671ZM82.3658 3.92147L84.8534 3.67303L84.605 1.1854L82.1174 1.43384L82.3658 3.92147ZM83.9488 19.7726L84.1973 22.2602L86.6849 22.0118L86.4365 19.5242L83.9488 19.7726ZM57.2616 22.4379L57.0132 19.9502L54.5255 20.1987L54.774 22.6863L57.2616 22.4379ZM57.6015 25.8409L55.1138 26.0894L55.3623 28.577L57.8499 28.3286L57.6015 25.8409ZM88.05 22.8L90.5376 22.5516L90.2892 20.064L87.8016 20.3124L88.05 22.8ZM89.6867 39.1885L89.9351 41.6761L92.4228 41.4277L92.1743 38.9401L89.6867 39.1885ZM59.2382 42.2294L58.9897 39.7418L56.5021 39.9902L56.7505 42.4778L59.2382 42.2294ZM59.2561 42.4085L56.7684 42.657L56.9358 44.3333L58.5524 44.8074L59.2561 42.4085ZM75.6976 45.8316L75.353 48.3077L75.3586 48.3085L75.6976 45.8316ZM93.8768 46.7295L91.7082 45.4857C89.8005 48.812 88.337 52.3763 87.3152 56.1716L89.7292 56.8216L92.1432 57.4715C93.0567 54.079 94.3582 50.9152 96.0455 47.9732L93.8768 46.7295ZM89.7292 56.8216L87.3091 56.1947C86.3519 59.8902 85.6442 64.2895 85.1697 69.368L87.6589 69.6006L90.148 69.8331C90.6062 64.9296 91.2787 60.8095 92.1493 57.4485L89.7292 56.8216ZM87.6589 69.6006L88.1425 67.1478C84.267 66.3836 79.9695 65.07 75.2423 63.1842L74.316 65.5063L73.3896 67.8283C78.3336 69.8006 82.9315 71.2165 87.1752 72.0533L87.6589 69.6006ZM74.316 65.5063L75.2423 63.1842C70.5477 61.3115 66.2124 59.0881 62.2309 56.5176L60.8749 58.6179L59.5189 60.7182C63.7876 63.4742 68.4129 65.843 73.3896 67.8283L74.316 65.5063ZM60.8749 58.6179L58.3873 58.8663L59.7467 72.4786L62.2343 72.2302L64.722 71.9817L63.3625 58.3694L60.8749 58.6179ZM62.2343 72.2302L61.9859 69.7425L40.6719 71.8712L40.9204 74.3588L41.1688 76.8464L62.4828 74.7178L62.2343 72.2302ZM40.9204 74.3588L43.408 74.1103L42.0485 60.4981L39.5609 60.7465L37.0733 60.9949L38.4327 74.6072L40.9204 74.3588ZM39.5609 60.7465L37.7994 58.9725C34.4148 62.3332 30.6134 65.3942 26.3893 68.1536L27.7565 70.2466L29.1238 72.3396C33.6169 69.4045 37.6851 66.1321 41.3224 62.5205L39.5609 60.7465ZM27.7565 70.2466L26.3893 68.1536C22.1351 70.9326 18.1901 73.0346 14.551 74.4875L15.4779 76.8093L16.4049 79.1311C20.42 77.5281 24.6608 75.255 29.1238 72.3396L27.7565 70.2466ZM15.4779 76.8093L17.8719 76.089C16.3998 71.1957 14.8014 67.0138 13.063 63.5735L10.8317 64.7011L8.60038 65.8286C10.1686 68.9321 11.6678 72.8223 13.0839 77.5295L15.4779 76.8093ZM10.8317 64.7011L13.0861 63.6206C11.3905 60.0827 9.27505 56.8637 6.73951 53.9715L4.85965 55.6196L2.97978 57.2676C5.20777 59.809 7.07365 62.6443 8.57723 65.7815L10.8317 64.7011ZM4.85965 55.6196L5.25663 58.0879C11.3401 57.1094 17.3351 55.5836 23.2402 53.5122L22.4127 51.1531L21.5851 48.7941C15.9553 50.7689 10.2483 52.2208 4.46266 53.1513L4.85965 55.6196ZM22.4127 51.1531L23.2348 53.5141C29.1564 51.4521 34.4506 49.1994 39.1063 46.7495L37.9421 44.5371L36.7779 42.3248C32.3821 44.6379 27.3233 46.7959 21.5906 48.7922L22.4127 51.1531ZM37.9421 44.5371L40.4297 44.2887L40.4118 44.1096L37.9242 44.358L35.4366 44.6065L35.4545 44.7856L37.9421 44.5371ZM37.9242 44.358L37.6758 41.8704L7.22723 44.9113L7.47566 47.3989L7.7241 49.8865L38.1726 46.8457L37.9242 44.358ZM7.47566 47.3989L9.96329 47.1505L8.32658 30.762L5.83895 31.0104L3.35133 31.2589L4.98804 47.6473L7.47566 47.3989ZM5.83895 31.0104L6.08739 33.4981L36.5359 30.4572L36.2875 27.9695L36.039 25.4819L5.59051 28.5228L5.83895 31.0104ZM36.2875 27.9695L38.7751 27.7211L38.4352 24.318L35.9476 24.5665L33.46 24.8149L33.7999 28.218L36.2875 27.9695ZM35.9476 24.5665L35.6992 22.0789L9.01194 24.7441L9.26038 27.2317L9.50882 29.7193L36.1961 27.0541L35.9476 24.5665ZM9.26038 27.2317L11.748 26.9833L10.165 11.1321L7.67733 11.3806L5.18971 11.629L6.77275 27.4802L9.26038 27.2317ZM7.67733 11.3806L7.92577 13.8682L34.613 11.203L34.3646 8.71533L34.1161 6.2277L7.42889 8.89295L7.67733 11.3806ZM34.3646 8.71533L36.8522 8.46689L36.4676 4.61605L33.98 4.86449L31.4924 5.11293L31.8769 8.96377L34.3646 8.71533ZM33.98 4.86449L34.2284 7.35212L55.5424 5.2235L55.294 2.73587L55.0455 0.248245L33.7316 2.37686L33.98 4.86449ZM55.294 2.73587L52.8063 2.98431L53.1909 6.83515L55.6785 6.58671L58.1662 6.33827L57.7816 2.48743L55.294 2.73587ZM55.6785 6.58671L55.927 9.07434L82.6142 6.40909L82.3658 3.92147L82.1174 1.43384L55.4301 4.09909L55.6785 6.58671ZM82.3658 3.92147L79.8782 4.1699L81.4612 20.0211L83.9488 19.7726L86.4365 19.5242L84.8534 3.67303L82.3658 3.92147ZM83.9488 19.7726L83.7004 17.285L57.0132 19.9502L57.2616 22.4379L57.51 24.9255L84.1973 22.2602L83.9488 19.7726ZM57.2616 22.4379L54.774 22.6863L55.1138 26.0894L57.6015 25.8409L60.0891 25.5925L59.7492 22.1894L57.2616 22.4379ZM57.6015 25.8409L57.8499 28.3286L88.2984 25.2877L88.05 22.8L87.8016 20.3124L57.353 23.3533L57.6015 25.8409ZM88.05 22.8L85.5624 23.0485L87.1991 39.437L89.6867 39.1885L92.1743 38.9401L90.5376 22.5516L88.05 22.8ZM89.6867 39.1885L89.4383 36.7009L58.9897 39.7418L59.2382 42.2294L59.4866 44.717L89.9351 41.6761L89.6867 39.1885ZM59.2382 42.2294L56.7505 42.4778L56.7684 42.657L59.2561 42.4085L61.7437 42.1601L61.7258 41.981L59.2382 42.2294ZM59.2561 42.4085L58.5524 44.8074C63.5974 46.2873 69.2005 47.4514 75.353 48.3077L75.6976 45.8316L76.0423 43.3554C70.0873 42.5266 64.7294 41.4087 59.9597 40.0096L59.2561 42.4085ZM75.6976 45.8316L75.3586 48.3085C81.6133 49.1644 87.8196 49.4715 93.9758 49.2275L93.8768 46.7295L93.7778 44.2314C87.9219 44.4635 82.0087 44.172 76.0366 43.3547L75.6976 45.8316Z" fill="#0059AC"/>
</svg>
