<svg width="1440" height="6357" viewBox="0 0 1440 6357" fill="none" xmlns="http://www.w3.org/2000/svg">
<path d="M3.99414 -118.963V5537.04" stroke="#363636" stroke-opacity="0.03" stroke-width="3" stroke-miterlimit="16"/>
<path d="M276.994 -118.963V5537.04" stroke="#363636" stroke-opacity="0.03" stroke-width="3" stroke-miterlimit="16"/>
<path d="M549.994 -118.963V5537.04" stroke="#363636" stroke-opacity="0.03" stroke-width="3" stroke-miterlimit="16"/>
<path d="M140.994 -118.963V5537.04" stroke="#363636" stroke-opacity="0.03" stroke-width="3" stroke-miterlimit="16"/>
<path d="M412.994 -118.963V5537.04" stroke="#363636" stroke-opacity="0.03" stroke-width="3" stroke-miterlimit="16"/>
<path d="M685.994 -118.963V5537.04" stroke="#363636" stroke-opacity="0.03" stroke-width="3" stroke-miterlimit="16"/>
<path d="M140.994 -118.963V5537.04" stroke="#363636" stroke-opacity="0.03" stroke-width="3" stroke-miterlimit="16"/>
<path d="M412.994 -118.963V5537.04" stroke="#363636" stroke-opacity="0.03" stroke-width="3" stroke-miterlimit="16"/>
<path d="M685.994 -118.963V5537.04" stroke="#363636" stroke-opacity="0.03" stroke-width="3" stroke-miterlimit="16"/>
<path d="M276.994 -118.963V5537.04" stroke="#363636" stroke-opacity="0.03" stroke-width="3" stroke-miterlimit="16"/>
<path d="M549.994 -118.963V5537.04" stroke="#363636" stroke-opacity="0.03" stroke-width="3" stroke-miterlimit="16"/>
<path d="M821.994 -118.963V5537.04" stroke="#363636" stroke-opacity="0.03" stroke-width="3" stroke-miterlimit="16"/>
<path d="M1095.99 -118.963V5537.04" stroke="#363636" stroke-opacity="0.03" stroke-width="3" stroke-miterlimit="16"/>
<path d="M1367.99 -118.963V5537.04" stroke="#363636" stroke-opacity="0.03" stroke-width="3" stroke-miterlimit="16"/>
<path d="M958.994 -118.963V5537.04" stroke="#363636" stroke-opacity="0.03" stroke-width="3" stroke-miterlimit="16"/>
<path d="M1231.99 -118.963V5537.04" stroke="#363636" stroke-opacity="0.03" stroke-width="3" stroke-miterlimit="16"/>
<path d="M3.99414 4174.04V5537.04" stroke="white" stroke-opacity="0.03" stroke-width="3" stroke-miterlimit="16"/>
<path d="M276.994 4174.04V5537.04" stroke="white" stroke-opacity="0.03" stroke-width="3" stroke-miterlimit="16"/>
<path d="M549.994 4174.04V5537.04" stroke="white" stroke-opacity="0.03" stroke-width="3" stroke-miterlimit="16"/>
<path d="M140.994 4174.04V5537.04" stroke="white" stroke-opacity="0.03" stroke-width="3" stroke-miterlimit="16"/>
<path d="M412.994 4174.04V5537.04" stroke="white" stroke-opacity="0.03" stroke-width="3" stroke-miterlimit="16"/>
<path d="M685.994 4174.04V5537.04" stroke="white" stroke-opacity="0.03" stroke-width="3" stroke-miterlimit="16"/>
<path d="M140.994 4174.04V5537.04" stroke="white" stroke-opacity="0.03" stroke-width="3" stroke-miterlimit="16"/>
<path d="M412.994 4174.04V5537.04" stroke="white" stroke-opacity="0.03" stroke-width="3" stroke-miterlimit="16"/>
<path d="M685.994 4174.04V5537.04" stroke="white" stroke-opacity="0.03" stroke-width="3" stroke-miterlimit="16"/>
<path d="M276.994 4174.04V5537.04" stroke="white" stroke-opacity="0.03" stroke-width="3" stroke-miterlimit="16"/>
<path d="M549.994 4174.04V5537.04" stroke="white" stroke-opacity="0.03" stroke-width="3" stroke-miterlimit="16"/>
<path d="M821.994 4174.04V5537.04" stroke="white" stroke-opacity="0.03" stroke-width="3" stroke-miterlimit="16"/>
<path d="M1095.99 4174.04V5537.04" stroke="white" stroke-opacity="0.03" stroke-width="3" stroke-miterlimit="16"/>
<path d="M1367.99 4174.04V5537.04" stroke="white" stroke-opacity="0.03" stroke-width="3" stroke-miterlimit="16"/>
<path d="M958.994 4174.04V5537.04" stroke="white" stroke-opacity="0.03" stroke-width="3" stroke-miterlimit="16"/>
<path d="M1231.99 4174.04V5537.04" stroke="white" stroke-opacity="0.03" stroke-width="3" stroke-miterlimit="16"/>
<path d="M-31 628.941L1467 628.941" stroke="#363636" stroke-opacity="0.03" stroke-width="3" stroke-miterlimit="16"/>
<path d="M-31 2264.94L1467 2264.94" stroke="#363636" stroke-opacity="0.03" stroke-width="3" stroke-miterlimit="16"/>
<path d="M-31 356.941L1467 356.941" stroke="#363636" stroke-opacity="0.03" stroke-width="3" stroke-miterlimit="16"/>
<path d="M-31 1992.94L1467 1992.94" stroke="#363636" stroke-opacity="0.03" stroke-width="3" stroke-miterlimit="16"/>
<path d="M-31 84L1467 84" stroke="#363636" stroke-opacity="0.03" stroke-width="3" stroke-miterlimit="16"/>
<path d="M-31 1720L1467 1720" stroke="#363636" stroke-opacity="0.03" stroke-width="3" stroke-miterlimit="16"/>
<path d="M-31 492.941L1467 492.941" stroke="#363636" stroke-opacity="0.03" stroke-width="3" stroke-miterlimit="16"/>
<path d="M-31 2128.94L1467 2128.94" stroke="#363636" stroke-opacity="0.03" stroke-width="3" stroke-miterlimit="16"/>
<path d="M-31 220L1467 220" stroke="#363636" stroke-opacity="0.03" stroke-width="3" stroke-miterlimit="16"/>
<path d="M-31 1856L1467 1856" stroke="#363636" stroke-opacity="0.03" stroke-width="3" stroke-miterlimit="16"/>
<path d="M-31 1584L1467 1584" stroke="#363636" stroke-opacity="0.03" stroke-width="3" stroke-miterlimit="16"/>
<path d="M-31 492.941L1467 492.941" stroke="#363636" stroke-opacity="0.03" stroke-width="3" stroke-miterlimit="16"/>
<path d="M-31 2128.94L1467 2128.94" stroke="#363636" stroke-opacity="0.03" stroke-width="3" stroke-miterlimit="16"/>
<path d="M-31 220L1467 220" stroke="#363636" stroke-opacity="0.03" stroke-width="3" stroke-miterlimit="16"/>
<path d="M-31 1856L1467 1856" stroke="#363636" stroke-opacity="0.03" stroke-width="3" stroke-miterlimit="16"/>
<path d="M-31 1584L1467 1584" stroke="#363636" stroke-opacity="0.03" stroke-width="3" stroke-miterlimit="16"/>
<path d="M-31 356.941L1467 356.941" stroke="#363636" stroke-opacity="0.03" stroke-width="3" stroke-miterlimit="16"/>
<path d="M-31 1992.94L1467 1992.94" stroke="#363636" stroke-opacity="0.03" stroke-width="3" stroke-miterlimit="16"/>
<path d="M-31 84L1467 84" stroke="#363636" stroke-opacity="0.03" stroke-width="3" stroke-miterlimit="16"/>
<path d="M-31 1720L1467 1720" stroke="#363636" stroke-opacity="0.03" stroke-width="3" stroke-miterlimit="16"/>
<path d="M-31 1447L1467 1447" stroke="#363636" stroke-opacity="0.03" stroke-width="3" stroke-miterlimit="16"/>
<path d="M-31 1446.94L1467 1446.94" stroke="#363636" stroke-opacity="0.03" stroke-width="3" stroke-miterlimit="16"/>
<path d="M-31 3082.94L1467 3082.94" stroke="#363636" stroke-opacity="0.03" stroke-width="3" stroke-miterlimit="16"/>
<path d="M-31 1174.94L1467 1174.94" stroke="#363636" stroke-opacity="0.03" stroke-width="3" stroke-miterlimit="16"/>
<path d="M-31 2810.94L1467 2810.94" stroke="#363636" stroke-opacity="0.03" stroke-width="3" stroke-miterlimit="16"/>
<path d="M-31 901.998L1467 901.998" stroke="#363636" stroke-opacity="0.03" stroke-width="3" stroke-miterlimit="16"/>
<path d="M-31 2538L1467 2538" stroke="#363636" stroke-opacity="0.03" stroke-width="3" stroke-miterlimit="16"/>
<path d="M-31 1310.94L1467 1310.94" stroke="#363636" stroke-opacity="0.03" stroke-width="3" stroke-miterlimit="16"/>
<path d="M-31 2946.94L1467 2946.94" stroke="#363636" stroke-opacity="0.03" stroke-width="3" stroke-miterlimit="16"/>
<path d="M-31 1038L1467 1038" stroke="#363636" stroke-opacity="0.03" stroke-width="3" stroke-miterlimit="16"/>
<path d="M-31 2674L1467 2674" stroke="#363636" stroke-opacity="0.03" stroke-width="3" stroke-miterlimit="16"/>
<path d="M-31 765.998L1467 765.998" stroke="#363636" stroke-opacity="0.03" stroke-width="3" stroke-miterlimit="16"/>
<path d="M-31 2402L1467 2402" stroke="#363636" stroke-opacity="0.03" stroke-width="3" stroke-miterlimit="16"/>
<path d="M-31 1310.94L1467 1310.94" stroke="#363636" stroke-opacity="0.03" stroke-width="3" stroke-miterlimit="16"/>
<path d="M-31 2946.94L1467 2946.94" stroke="#363636" stroke-opacity="0.03" stroke-width="3" stroke-miterlimit="16"/>
<path d="M-31 1038L1467 1038" stroke="#363636" stroke-opacity="0.03" stroke-width="3" stroke-miterlimit="16"/>
<path d="M-31 2674L1467 2674" stroke="#363636" stroke-opacity="0.03" stroke-width="3" stroke-miterlimit="16"/>
<path d="M-31 765.998L1467 765.998" stroke="#363636" stroke-opacity="0.03" stroke-width="3" stroke-miterlimit="16"/>
<path d="M-31 2402L1467 2402" stroke="#363636" stroke-opacity="0.03" stroke-width="3" stroke-miterlimit="16"/>
<path d="M-31 1174.94L1467 1174.94" stroke="#363636" stroke-opacity="0.03" stroke-width="3" stroke-miterlimit="16"/>
<path d="M-31 2810.94L1467 2810.94" stroke="#363636" stroke-opacity="0.03" stroke-width="3" stroke-miterlimit="16"/>
<path d="M-31 901.998L1467 901.998" stroke="#363636" stroke-opacity="0.03" stroke-width="3" stroke-miterlimit="16"/>
<path d="M-31 2538L1467 2538" stroke="#363636" stroke-opacity="0.03" stroke-width="3" stroke-miterlimit="16"/>
<path d="M-31 3900.94L1467 3900.94" stroke="#363636" stroke-opacity="0.03" stroke-width="3" stroke-miterlimit="16"/>
<path d="M-31 5536.94L1467 5536.94" stroke="#363636" stroke-opacity="0.03" stroke-width="3" stroke-miterlimit="16"/>
<path d="M-31 3628.94L1467 3628.94" stroke="#363636" stroke-opacity="0.03" stroke-width="3" stroke-miterlimit="16"/>
<path d="M-31 5264.94L1467 5264.94" stroke="#363636" stroke-opacity="0.03" stroke-width="3" stroke-miterlimit="16"/>
<path d="M-31 3356L1467 3356" stroke="#363636" stroke-opacity="0.03" stroke-width="3" stroke-miterlimit="16"/>
<path d="M-31 4992L1467 4992" stroke="#363636" stroke-opacity="0.03" stroke-width="3" stroke-miterlimit="16"/>
<path d="M-31 3764.94L1467 3764.94" stroke="#363636" stroke-opacity="0.03" stroke-width="3" stroke-miterlimit="16"/>
<path d="M-31 5400.94L1467 5400.94" stroke="#363636" stroke-opacity="0.03" stroke-width="3" stroke-miterlimit="16"/>
<path d="M-31 3492L1467 3492" stroke="#363636" stroke-opacity="0.03" stroke-width="3" stroke-miterlimit="16"/>
<path d="M-31 5128L1467 5128" stroke="#363636" stroke-opacity="0.03" stroke-width="3" stroke-miterlimit="16"/>
<path d="M-31 3220L1467 3220" stroke="#363636" stroke-opacity="0.03" stroke-width="3" stroke-miterlimit="16"/>
<path d="M-31 4856L1467 4856" stroke="#363636" stroke-opacity="0.03" stroke-width="3" stroke-miterlimit="16"/>
<path d="M-31 3764.94L1467 3764.94" stroke="#363636" stroke-opacity="0.03" stroke-width="3" stroke-miterlimit="16"/>
<path d="M-31 5400.94L1467 5400.94" stroke="#363636" stroke-opacity="0.03" stroke-width="3" stroke-miterlimit="16"/>
<path d="M-31 3492L1467 3492" stroke="#363636" stroke-opacity="0.03" stroke-width="3" stroke-miterlimit="16"/>
<path d="M-31 5128L1467 5128" stroke="#363636" stroke-opacity="0.03" stroke-width="3" stroke-miterlimit="16"/>
<path d="M-31 3220L1467 3220" stroke="#363636" stroke-opacity="0.03" stroke-width="3" stroke-miterlimit="16"/>
<path d="M-31 4856L1467 4856" stroke="#363636" stroke-opacity="0.03" stroke-width="3" stroke-miterlimit="16"/>
<path d="M-31 3628.94L1467 3628.94" stroke="#363636" stroke-opacity="0.03" stroke-width="3" stroke-miterlimit="16"/>
<path d="M-31 5264.94L1467 5264.94" stroke="#363636" stroke-opacity="0.03" stroke-width="3" stroke-miterlimit="16"/>
<path d="M-31 3356L1467 3356" stroke="#363636" stroke-opacity="0.03" stroke-width="3" stroke-miterlimit="16"/>
<path d="M-31 4992L1467 4992" stroke="#363636" stroke-opacity="0.03" stroke-width="3" stroke-miterlimit="16"/>
<path d="M-31 3083L1467 3083" stroke="#363636" stroke-opacity="0.03" stroke-width="3" stroke-miterlimit="16"/>
<path d="M-31 4719L1467 4719" stroke="#363636" stroke-opacity="0.03" stroke-width="3" stroke-miterlimit="16"/>
<path d="M-31 4718.94L1467 4718.94" stroke="#363636" stroke-opacity="0.03" stroke-width="3" stroke-miterlimit="16"/>
<path d="M-31 6354.94L1467 6354.94" stroke="#363636" stroke-opacity="0.03" stroke-width="3" stroke-miterlimit="16"/>
<path d="M-31 4446.94L1467 4446.94" stroke="#363636" stroke-opacity="0.03" stroke-width="3" stroke-miterlimit="16"/>
<path d="M-31 6082.94L1467 6082.94" stroke="#363636" stroke-opacity="0.03" stroke-width="3" stroke-miterlimit="16"/>
<path d="M-31 4174L1467 4174" stroke="#363636" stroke-opacity="0.03" stroke-width="3" stroke-miterlimit="16"/>
<path d="M-31 5810L1467 5810" stroke="#363636" stroke-opacity="0.03" stroke-width="3" stroke-miterlimit="16"/>
<path d="M-31 4582.94L1467 4582.94" stroke="#363636" stroke-opacity="0.03" stroke-width="3" stroke-miterlimit="16"/>
<path d="M-31 6218.94L1467 6218.94" stroke="#363636" stroke-opacity="0.03" stroke-width="3" stroke-miterlimit="16"/>
<path d="M-31 4310L1467 4310" stroke="#363636" stroke-opacity="0.03" stroke-width="3" stroke-miterlimit="16"/>
<path d="M-31 5946L1467 5946" stroke="#363636" stroke-opacity="0.03" stroke-width="3" stroke-miterlimit="16"/>
<path d="M-31 4038L1467 4038" stroke="#363636" stroke-opacity="0.03" stroke-width="3" stroke-miterlimit="16"/>
<path d="M-31 5674L1467 5674" stroke="#363636" stroke-opacity="0.03" stroke-width="3" stroke-miterlimit="16"/>
<path d="M-31 4582.94L1467 4582.94" stroke="#363636" stroke-opacity="0.03" stroke-width="3" stroke-miterlimit="16"/>
<path d="M-31 6218.94L1467 6218.94" stroke="#363636" stroke-opacity="0.03" stroke-width="3" stroke-miterlimit="16"/>
<path d="M-31 4310L1467 4310" stroke="#363636" stroke-opacity="0.03" stroke-width="3" stroke-miterlimit="16"/>
<path d="M-31 5946L1467 5946" stroke="#363636" stroke-opacity="0.03" stroke-width="3" stroke-miterlimit="16"/>
<path d="M-31 4038L1467 4038" stroke="#363636" stroke-opacity="0.03" stroke-width="3" stroke-miterlimit="16"/>
<path d="M-31 5674L1467 5674" stroke="#363636" stroke-opacity="0.03" stroke-width="3" stroke-miterlimit="16"/>
<path d="M-31 4446.94L1467 4446.94" stroke="#363636" stroke-opacity="0.03" stroke-width="3" stroke-miterlimit="16"/>
</svg>
