<?xml version="1.0" encoding="UTF-8"?>
<svg id="Layer_1" xmlns="http://www.w3.org/2000/svg" version="1.1" viewBox="0 0 2000 2000">
  <!-- Generator: Adobe Illustrator 30.0.0, SVG Export Plug-In . SVG Version: 2.1.1 Build 123)  -->
  <defs>
    <style>
      .st0 {
        fill: #fef202;
      }

      .st1 {
        fill: #fe5100;
      }

      .st2 {
        display: none;
      }

      .st3 {
        fill: #0059ab;
      }
    </style>
  </defs>
  <g class="st2">
    <path class="st3" d="M944.1,68.1c747.2-46.5,1245.4,772.7,857.6,1416.5-362.5,601.8-1240.3,601.5-1603.2,0C-165.3,881.7,246.5,111.5,944.1,68.1Z"/>
    <path class="st0" d="M1680.7,449.8c418.7,509,135.7,1284.3-505.5,1412.3C496.2,1997.7-69.1,1332.3,180.4,684.4,422.6,55.4,1252.3-70.9,1680.7,449.8Z"/>
    <path class="st3" d="M1132.7,1222.2l261.5,462.2c-241.8,139.1-546.3,138-788.5.4l263.5-458.8c11.4-8.8,34.3,11.7,48.5,16.4,45.8,15.2,103.7,16.3,150.2,3.7,23.4-6.4,42-21,64.8-23.9Z"/>
    <path class="st3" d="M211.3,1001.8c2.8-277.2,150-542.8,392.3-678.5l268.2,456.5c.9,8-17.1,13.4-25.3,20.4-60.4,52.3-101.3,119-98.7,201.6H211.3Z"/>
    <path class="st3" d="M1252.3,1001.8c3.7-79.1-38.1-149.3-96.2-199.5-10.8-9.3-29.8-11.1-27.1-26.4l267.5-452.6c149.3,83.5,271.3,226.3,334.8,385.3,37.5,93.9,53.7,192.4,57.5,293.2h-536.5Z"/>
    <path class="st3" d="M976.1,833.4c227-30.7,265.9,312.6,44.2,337.5-222.7,25-259.9-308.3-44.2-337.5Z"/>
  </g>
  <g>
    <path class="st1" d="M952.7,24.6c767.7-47.8,1279.8,794,881.2,1455.5-372.5,618.4-1274.5,618.1-1647.4,0C-187.3,860.6,235.8,69.2,952.7,24.6Z"/>
    <path class="st0" d="M1709.6,416.9c430.3,523,139.5,1319.7-519.4,1451.3C492.5,2007.4-88.4,1323.6,168,657.9,416.8,11.8,1269.2-118.5,1709.6,416.9Z"/>
    <path class="st1" d="M1146.5,1210.5l268.7,475c-248.7,142.8-561.2,142-810.2.4l270.7-471.4c11.7-9.1,35.3,12,49.8,16.8,47.1,15.6,106.6,16.8,154.3,3.8,24-6.5,43.2-21.6,66.6-24.5Z"/>
    <path class="st1" d="M199.7,984.1c2.9-284.8,154.1-557.8,403.1-697.2l275.6,469.1c.9,8.2-17.6,13.7-25.9,21-62.1,53.7-104.1,122.3-101.4,207.1H199.7Z"/>
    <path class="st1" d="M1269.4,984.1c3.6-63.8-28.4-136.6-72.3-182-9.7-10-52.6-37.1-54.3-40-1.1-1.9-1.5-3.9-.8-6.1l275.6-469c248,139.4,400.7,412.6,403.1,697.2h-551.3Z"/>
    <path class="st1" d="M985.5,811c233.2-31.6,273.2,321.2,45.4,346.8-228.9,25.7-267-316.8-45.4-346.8Z"/>
  </g>
</svg>