<svg width="100" height="100" viewBox="0 0 1925 1922" fill="none" xmlns="http://www.w3.org/2000/svg">
<path d="M905.044 1.94756C1672.74 -45.8524 2184.84 795.948 1786.24 1457.45C1413.74 2075.85 511.744 2075.55 138.844 1457.45C-234.956 837.948 188.144 46.5476 905.044 1.94756Z" fill="#FE5100"/>
<path d="M1661.94 394.248C2092.24 917.248 1801.44 1713.95 1142.54 1845.55C444.844 1984.75 -136.056 1300.95 120.344 635.248C369.144 -10.8515 1221.54 -141.152 1661.94 394.248Z" fill="#FEF202"/>
<path d="M1098.84 1187.85L1367.54 1662.85C1118.84 1805.65 806.344 1804.85 557.344 1663.25L828.044 1191.85C839.744 1182.75 863.344 1203.85 877.844 1208.65C924.944 1224.25 984.444 1225.45 1032.14 1212.45C1056.14 1205.95 1075.34 1190.85 1098.74 1187.95L1098.84 1187.85Z" fill="#FE5100"/>
<path d="M152.043 961.448C154.943 676.648 306.143 403.648 555.143 264.248L830.743 733.348C831.643 741.548 813.143 747.048 804.843 754.348C742.743 808.048 700.743 876.648 703.443 961.448H152.043Z" fill="#FE5100"/>
<path d="M1221.74 961.448C1225.34 897.648 1193.34 824.848 1149.44 779.448C1139.74 769.448 1096.84 742.348 1095.14 739.448C1094.04 737.548 1093.64 735.548 1094.34 733.348L1369.94 264.348C1617.94 403.748 1770.64 676.948 1773.04 961.548H1221.74V961.448Z" fill="#FE5100"/>
<path d="M937.844 788.348C1171.04 756.748 1211.04 1109.55 983.244 1135.15C754.344 1160.85 716.244 818.348 937.844 788.348Z" fill="#FE5100"/>
</svg>
