<svg width="100" height="100" viewBox="0 0 1874 1870" fill="none" xmlns="http://www.w3.org/2000/svg">
<path d="M880.728 1.89394C1627.93 -44.6061 2126.13 774.594 1738.33 1418.39C1375.83 2020.19 498.028 2019.89 135.128 1418.39C-228.672 815.494 183.128 45.2939 880.728 1.89394Z" fill="#0059AB"/>
<path d="M1617.33 383.595C2036.03 892.595 1753.03 1667.89 1111.83 1795.89C432.829 1931.49 -132.471 1266.09 117.029 618.195C359.229 -10.8052 1188.93 -137.105 1617.33 383.595Z" fill="#FEF202"/>
<path d="M1069.33 1155.99L1330.83 1618.19C1089.03 1757.29 784.528 1756.19 542.328 1618.59L805.828 1159.79C817.228 1150.99 840.128 1171.49 854.328 1176.19C900.128 1191.39 958.028 1192.49 1004.53 1179.89C1027.93 1173.49 1046.53 1158.89 1069.33 1155.99Z" fill="#0059AB"/>
<path d="M147.928 935.594C150.728 658.394 297.928 392.794 540.228 257.094L808.428 713.594C809.328 721.594 791.328 726.994 783.128 733.994C722.728 786.294 681.828 852.994 684.428 935.594H147.928Z" fill="#0059AB"/>
<path d="M1188.93 935.594C1192.63 856.494 1150.83 786.294 1092.73 736.094C1081.93 726.794 1062.93 724.994 1065.63 709.694L1333.13 257.094C1482.43 340.594 1604.43 483.394 1667.93 642.394C1705.43 736.294 1721.63 834.794 1725.43 935.594H1188.93Z" fill="#0059AB"/>
<path d="M912.728 767.195C1139.73 736.495 1178.63 1079.79 956.928 1104.69C734.228 1129.69 697.028 796.395 912.728 767.195Z" fill="#0059AB"/>
</svg>
