<svg width="122" height="76" viewBox="0 0 122 76" fill="none" xmlns="http://www.w3.org/2000/svg">
<path d="M56.0456 45.8176L51.0234 16.4536L66.3276 11.9917L71.1988 59.9783L51.9431 65.5922L40.272 41.4333L42.723 68.2803L24.2827 73.6566L2.60202 30.5708L17.9062 26.1089L29.2791 53.213L26.1228 23.7133L42.8696 18.8309L56.0456 45.8176ZM78.1329 24.5425L107.713 2.98832L111.389 15.5954L91.5754 29.3342L115.686 30.3351L119.361 42.9422L82.8325 40.662L78.1329 24.5425Z" fill="#FFF200"/>
<path d="M56.0456 45.8176L54.4148 46.6138L57.8345 45.5116L56.0456 45.8176ZM51.0234 16.4536L50.5155 14.7113L48.9617 15.1643L49.2346 16.7596L51.0234 16.4536ZM66.3276 11.9917L68.1331 11.8084L67.9129 9.63916L65.8196 10.2495L66.3276 11.9917ZM71.1988 59.9783L71.7068 61.7206L73.1569 61.2978L73.0043 59.795L71.1988 59.9783ZM51.9431 65.5922L50.309 66.3817L50.977 67.7643L52.4511 67.3345L51.9431 65.5922ZM40.272 41.4333L41.9062 40.6439L38.4647 41.5983L40.272 41.4333ZM42.723 68.2803L43.231 70.0226L44.6662 69.6042L44.5303 68.1153L42.723 68.2803ZM24.2827 73.6566L22.6616 74.4723L23.3406 75.8216L24.7907 75.3988L24.2827 73.6566ZM2.60202 30.5708L2.09407 28.8285L0.000782416 29.4388L0.980883 31.3865L2.60202 30.5708ZM17.9062 26.1089L19.5797 25.4067L18.953 23.9133L17.3982 24.3666L17.9062 26.1089ZM29.2791 53.213L27.6056 53.9152L31.0836 53.0199L29.2791 53.213ZM26.1228 23.7133L25.6148 21.9711L24.1567 22.3962L24.3183 23.9064L26.1228 23.7133ZM42.8696 18.8309L44.5004 18.0346L43.8295 16.6606L42.3616 17.0886L42.8696 18.8309ZM56.0456 45.8176L57.8345 45.5116L52.8123 16.1477L51.0234 16.4536L49.2346 16.7596L54.2568 46.1235L56.0456 45.8176ZM51.0234 16.4536L51.5314 18.1959L66.8355 13.734L66.3276 11.9917L65.8196 10.2495L50.5155 14.7113L51.0234 16.4536ZM66.3276 11.9917L64.522 12.175L69.3933 60.1616L71.1988 59.9783L73.0043 59.795L68.1331 11.8084L66.3276 11.9917ZM71.1988 59.9783L70.6908 58.236L51.4352 63.85L51.9431 65.5922L52.4511 67.3345L71.7068 61.7206L71.1988 59.9783ZM51.9431 65.5922L53.5773 64.8028L41.9062 40.6439L40.272 41.4333L38.6379 42.2227L50.309 66.3817L51.9431 65.5922ZM40.272 41.4333L38.4647 41.5983L40.9157 68.4453L42.723 68.2803L44.5303 68.1153L42.0793 41.2683L40.272 41.4333ZM42.723 68.2803L42.215 66.5381L23.7748 71.9143L24.2827 73.6566L24.7907 75.3988L43.231 70.0226L42.723 68.2803ZM24.2827 73.6566L25.9039 72.8408L4.22316 29.755L2.60202 30.5708L0.980883 31.3865L22.6616 74.4723L24.2827 73.6566ZM2.60202 30.5708L3.10998 32.313L18.4142 27.8511L17.9062 26.1089L17.3982 24.3666L2.09407 28.8285L2.60202 30.5708ZM17.9062 26.1089L16.2327 26.811L27.6056 53.9152L29.2791 53.213L30.9525 52.5108L19.5797 25.4067L17.9062 26.1089ZM29.2791 53.213L31.0836 53.0199L27.9273 23.5203L26.1228 23.7133L24.3183 23.9064L27.4745 53.4061L29.2791 53.213ZM26.1228 23.7133L26.6307 25.4556L43.3775 20.5731L42.8696 18.8309L42.3616 17.0886L25.6148 21.9711L26.1228 23.7133ZM42.8696 18.8309L41.2387 19.6271L54.4148 46.6138L56.0456 45.8176L57.6764 45.0214L44.5004 18.0346L42.8696 18.8309ZM78.1329 24.5425L77.0642 23.0757L76.0338 23.8265L76.3906 25.0504L78.1329 24.5425ZM107.713 2.98832L109.455 2.48036L108.732 0.000159916L106.644 1.52159L107.713 2.98832ZM111.389 15.5954L112.423 17.0868L113.497 16.3421L113.131 15.0875L111.389 15.5954ZM91.5754 29.3342L90.5413 27.8428L86.0989 30.9232L91.5001 31.1474L91.5754 29.3342ZM115.686 30.3351L117.428 29.8272L117.063 28.5759L115.761 28.5219L115.686 30.3351ZM119.361 42.9422L119.248 44.7535L121.827 44.9145L121.104 42.4343L119.361 42.9422ZM82.8325 40.662L81.0903 41.17L81.4471 42.3939L82.7195 42.4733L82.8325 40.662ZM78.1329 24.5425L79.2017 26.0092L108.782 4.45504L107.713 2.98832L106.644 1.52159L77.0642 23.0757L78.1329 24.5425ZM107.713 2.98832L105.971 3.49627L109.646 16.1034L111.389 15.5954L113.131 15.0875L109.455 2.48036L107.713 2.98832ZM111.389 15.5954L110.354 14.1041L90.5413 27.8428L91.5754 29.3342L92.6095 30.8255L112.423 17.0868L111.389 15.5954ZM91.5754 29.3342L91.5001 31.1474L115.611 32.1484L115.686 30.3351L115.761 28.5219L91.6507 27.5209L91.5754 29.3342ZM115.686 30.3351L113.944 30.8431L117.619 43.4502L119.361 42.9422L121.104 42.4343L117.428 29.8272L115.686 30.3351ZM119.361 42.9422L119.475 41.1309L82.9456 38.8507L82.8325 40.662L82.7195 42.4733L119.248 44.7535L119.361 42.9422ZM82.8325 40.662L84.5748 40.1541L79.8752 24.0345L78.1329 24.5425L76.3906 25.0504L81.0903 41.17L82.8325 40.662Z" fill="#FF5100"/>
</svg>
